 http://www.imdb.com/title/tt0120749/

Source: Mercury.Rising.1998.720p.BluRay.DTS.x264-PiPicK Thanks!

Subs: Arabic, Brazilian, Bulgarian, Dutch, English, Portuguese and Slovenian.

Sample and Screens included.

General
Complete name                            : Mercury Rising-720p MP4 AAC x264 BRRip 1998-CC.mp4
Format                                   : MPEG-4
Format profile                           : Base Media
Codec ID                                 : isom
File size                                : 3.05 GiB
Duration                                 : 1h 51mn
Overall bit rate mode                    : Variable
Overall bit rate                         : 3 912 Kbps
Encoded date                             : UTC 2012-12-29 09:48:04

Video
ID                                       : 1
Format                                   : AVC
Format/Info                              : Advanced Video Codec
Format profile                           : High@L4.1
Format settings, CABAC                   : Yes
Format settings, ReFrames                : 5 frames
Codec ID                                 : avc1
Codec ID/Info                            : Advanced Video Coding
Duration                                 : 1h 51mn
Source duration                          : 1h 51mn
Bit rate                                 : 3 576 Kbps
Maximum bit rate                         : 18.9 Mbps
Width                                    : 1 280 pixels
Height                                   : 544 pixels
Display aspect ratio                     : 2.35:1
Frame rate mode                          : Variable
Frame rate                               : 23.976 fps
Minimum frame rate                       : 19.048 fps
Maximum frame rate                       : 24.390 fps
Color space                              : YUV
Chroma subsampling                       : 4:2:0
Bit depth                                : 8 bits
Scan type                                : Progressive
Bits/(Pixel*Frame)                       : 0.214
Stream size                              : 2.74 GiB (90%)
Source stream size                       : 2.74 GiB (90%)
Writing library                          : x264 core 112

Audio
ID                                       : 2
Format                                   : AAC
Format/Info                              : Advanced Audio Codec
Format profile                           : LC
Codec ID                                 : 40
Duration                                 : 1h 51mn
Bit rate mode                            : Variable
Bit rate                                 : 384 Kbps
Maximum bit rate                         : 605 Kbps
Channel(s)                               : 6 channels
Channel positions                        : Front: L C R, Side: L R, LFE
Sampling rate                            : 48.0 KHz
Compression mode                         : Lossy
Delay relative to video                  : 83ms
Stream size                              : 306 MiB (10%)
Language                                 : English

Enjoy...

Requested by iamharski 

Coming soon: Apocalypse Hitler, S.Darko, Domino, Twilight Samurai and more..